<?xml version="1.0" encoding="UTF-8" standalone="no"?>
<!DOCTYPE svg PUBLIC "-//W3C//DTD SVG 1.1//EN"
 "http://www.w3.org/Graphics/SVG/1.1/DTD/svg11.dtd">
<!-- Generated by graphviz version 14.1.5 (20260411.2331)
 -->
<!-- Pages: 1 -->
<svg width="1077pt" height="435pt"
 viewBox="0.00 0.00 1077.00 435.00" xmlns="http://www.w3.org/2000/svg" xmlns:xlink="http://www.w3.org/1999/xlink">
<g id="graph0" class="graph" transform="scale(1 1) rotate(0) translate(4 431.19)">
<polygon fill="white" stroke="none" points="-4,4 -4,-431.19 1073,-431.19 1073,4 -4,4"/>
<g id="clust1" class="cluster">
<title>cluster_sf</title>
<polygon fill="none" stroke="black" points="8,-257.69 8,-355.44 693,-355.44 693,-257.69 8,-257.69"/>
<text xml:space="preserve" text-anchor="middle" x="350.5" y="-340.99" font-family="Helvetica,sans-Serif" font-size="11.00">Salesforce org</text>
</g>
<g id="clust2" class="cluster">
<title>cluster_aws</title>
<polygon fill="none" stroke="black" points="791,-8 791,-355.44 1011,-355.44 1011,-8 791,-8"/>
<text xml:space="preserve" text-anchor="middle" x="901" y="-340.99" font-family="Helvetica,sans-Serif" font-size="11.00">Customer AWS</text>
</g>
<!-- dev -->
<g id="node1" class="node">
<title>dev</title>
<polygon fill="none" stroke="black" points="804.75,-427.19 801.75,-431.19 780.75,-431.19 777.75,-427.19 673.25,-427.19 673.25,-391.19 804.75,-391.19 804.75,-427.19"/>
<text xml:space="preserve" text-anchor="middle" x="739" y="-410.94" font-family="Helvetica,sans-Serif" font-size="10.00">Developer</text>
<text xml:space="preserve" text-anchor="middle" x="739" y="-399.69" font-family="Helvetica,sans-Serif" font-size="10.00">lambda:zip + sf udlo setup</text>
</g>
<!-- cap -->
<g id="node2" class="node">
<title>cap</title>
<path fill="none" stroke="black" d="M294.5,-307.44C294.5,-307.44 185.5,-307.44 185.5,-307.44 179.5,-307.44 173.5,-301.44 173.5,-295.44 173.5,-295.44 173.5,-277.69 173.5,-277.69 173.5,-271.69 179.5,-265.69 185.5,-265.69 185.5,-265.69 294.5,-265.69 294.5,-265.69 300.5,-265.69 306.5,-271.69 306.5,-277.69 306.5,-277.69 306.5,-295.44 306.5,-295.44 306.5,-301.44 300.5,-307.44 294.5,-307.44"/>
<text xml:space="preserve" text-anchor="middle" x="240" y="-293.94" font-family="Helvetica,sans-Serif" font-size="10.00">Connected App (Core)</text>
<text xml:space="preserve" text-anchor="middle" x="240" y="-282.69" font-family="Helvetica,sans-Serif" font-size="10.00">UDLO_Notifier + JWT cert</text>
<text xml:space="preserve" text-anchor="middle" x="240" y="-271.44" font-family="Helvetica,sans-Serif" font-size="10.00">Named&#45;user JWT off</text>
</g>
<!-- dev&#45;&gt;cap -->
<g id="edge1" class="edge">
<title>dev&#45;&gt;cap</title>
<path fill="none" stroke="black" d="M672.81,-404.81C569.98,-398.76 377.21,-383.94 315,-355.44 295.25,-346.39 277.07,-330.23 263.56,-315.95"/>
<polygon fill="black" stroke="black" points="266.5,-313.99 257.19,-308.95 261.33,-318.7 266.5,-313.99"/>
</g>
<!-- oauth -->
<g id="node3" class="node">
<title>oauth</title>
<path fill="none" stroke="black" d="M489.62,-304.56C489.62,-304.56 336.38,-304.56 336.38,-304.56 330.38,-304.56 324.38,-298.56 324.38,-292.56 324.38,-292.56 324.38,-280.56 324.38,-280.56 324.38,-274.56 330.38,-268.56 336.38,-268.56 336.38,-268.56 489.62,-268.56 489.62,-268.56 495.62,-268.56 501.62,-274.56 501.62,-280.56 501.62,-280.56 501.62,-292.56 501.62,-292.56 501.62,-298.56 495.62,-304.56 489.62,-304.56"/>
<text xml:space="preserve" text-anchor="middle" x="413" y="-288.31" font-family="Helvetica,sans-Serif" font-size="10.00">Browser OAuth :1717</text>
<text xml:space="preserve" text-anchor="middle" x="413" y="-277.06" font-family="Helvetica,sans-Serif" font-size="10.00">api + refresh_token + cdp_ingest_api</text>
</g>
<!-- dev&#45;&gt;oauth -->
<g id="edge2" class="edge">
<title>dev&#45;&gt;oauth</title>
<path fill="none" stroke="black" d="M672.95,-399.85C626.01,-392.3 562.28,-378.69 510,-355.44 485.1,-344.36 459.97,-326.55 441.53,-311.95"/>
<polygon fill="black" stroke="black" points="443.94,-309.4 433.97,-305.83 439.54,-314.84 443.94,-309.4"/>
</g>
<!-- s3conn -->
<g id="node4" class="node">
<title>s3conn</title>
<path fill="none" stroke="black" d="M672.62,-304.56C672.62,-304.56 531.38,-304.56 531.38,-304.56 525.38,-304.56 519.38,-298.56 519.38,-292.56 519.38,-292.56 519.38,-280.56 519.38,-280.56 519.38,-274.56 525.38,-268.56 531.38,-268.56 531.38,-268.56 672.62,-268.56 672.62,-268.56 678.62,-268.56 684.62,-274.56 684.62,-280.56 684.62,-280.56 684.62,-292.56 684.62,-292.56 684.62,-298.56 678.62,-304.56 672.62,-304.56"/>
<text xml:space="preserve" text-anchor="middle" x="602" y="-289.06" font-family="Helvetica,sans-Serif" font-size="10.00">Data Cloud: S3 connection</text>
<text xml:space="preserve" text-anchor="middle" x="602" y="-277.81" font-family="Helvetica,sans-Serif" font-size="10.00">keys or AssumeRole → your AWS</text>
</g>
<!-- dev&#45;&gt;s3conn -->
<g id="edge3" class="edge">
<title>dev&#45;&gt;s3conn</title>
<path fill="none" stroke="black" d="M719.05,-390.76C712.64,-385.15 705.52,-378.91 699,-373.19 675.74,-352.74 649.39,-329.48 630.04,-312.37"/>
<polygon fill="black" stroke="black" points="632.61,-309.98 622.8,-305.97 627.98,-315.22 632.61,-309.98"/>
</g>
<!-- udlo -->
<g id="node5" class="node">
<title>udlo</title>
<path fill="none" stroke="black" d="M143.5,-304.56C143.5,-304.56 28.5,-304.56 28.5,-304.56 22.5,-304.56 16.5,-298.56 16.5,-292.56 16.5,-292.56 16.5,-280.56 16.5,-280.56 16.5,-274.56 22.5,-268.56 28.5,-268.56 28.5,-268.56 143.5,-268.56 143.5,-268.56 149.5,-268.56 155.5,-274.56 155.5,-280.56 155.5,-280.56 155.5,-292.56 155.5,-292.56 155.5,-298.56 149.5,-304.56 143.5,-304.56"/>
<text xml:space="preserve" text-anchor="middle" x="86" y="-288.31" font-family="Helvetica,sans-Serif" font-size="10.00">Data Cloud: UDLO / UDMO</text>
<text xml:space="preserve" text-anchor="middle" x="86" y="-277.06" font-family="Helvetica,sans-Serif" font-size="10.00">trailing slash e.g. afd360/</text>
</g>
<!-- dev&#45;&gt;udlo -->
<g id="edge4" class="edge">
<title>dev&#45;&gt;udlo</title>
<path fill="none" stroke="black" d="M672.78,-407.22C541.85,-404.47 254.79,-394.1 165,-355.44 142.86,-345.9 122.36,-327.89 107.79,-312.82"/>
<polygon fill="black" stroke="black" points="110.74,-310.86 101.36,-305.93 105.62,-315.63 110.74,-310.86"/>
</g>
<!-- bucket -->
<g id="node6" class="node">
<title>bucket</title>
<path fill="none" stroke="black" d="M887.88,-216.12C887.88,-218.23 874.04,-219.94 857,-219.94 839.96,-219.94 826.12,-218.23 826.12,-216.12 826.12,-216.12 826.12,-181.81 826.12,-181.81 826.12,-179.71 839.96,-178 857,-178 874.04,-178 887.88,-179.71 887.88,-181.81 887.88,-181.81 887.88,-216.12 887.88,-216.12"/>
<path fill="none" stroke="black" d="M887.88,-216.12C887.88,-214.02 874.04,-212.31 857,-212.31 839.96,-212.31 826.12,-214.02 826.12,-216.12"/>
<text xml:space="preserve" text-anchor="middle" x="857" y="-200.72" font-family="Helvetica,sans-Serif" font-size="10.00">S3 bucket</text>
<text xml:space="preserve" text-anchor="middle" x="857" y="-189.47" font-family="Helvetica,sans-Serif" font-size="10.00">(data files)</text>
</g>
<!-- dev&#45;&gt;bucket -->
<g id="edge8" class="edge">
<title>dev&#45;&gt;bucket</title>
<path fill="none" stroke="black" d="M766.85,-390.7C776.64,-382.41 783.53,-372.39 776,-363.44 762.64,-347.56 743.36,-371.32 730,-355.44 702.04,-322.19 706.48,-294.21 730,-257.69 748.52,-228.93 785.27,-214.33 814.49,-207.03"/>
<polygon fill="black" stroke="black" points="815.22,-210.45 824.19,-204.82 813.66,-203.62 815.22,-210.45"/>
<text xml:space="preserve" text-anchor="middle" x="760" y="-282.89" font-family="Helvetica,sans-Serif" font-size="9.00"> S3 event notif </text>
</g>
<!-- secrets -->
<g id="node8" class="node">
<title>secrets</title>
<path fill="none" stroke="black" d="M985.62,-52C985.62,-52 898.38,-52 898.38,-52 892.38,-52 886.38,-46 886.38,-40 886.38,-40 886.38,-28 886.38,-28 886.38,-22 892.38,-16 898.38,-16 898.38,-16 985.62,-16 985.62,-16 991.62,-16 997.62,-22 997.62,-28 997.62,-28 997.62,-40 997.62,-40 997.62,-46 991.62,-52 985.62,-52"/>
<text xml:space="preserve" text-anchor="middle" x="942" y="-35.75" font-family="Helvetica,sans-Serif" font-size="10.00">Secrets Manager</text>
<text xml:space="preserve" text-anchor="middle" x="942" y="-24.5" font-family="Helvetica,sans-Serif" font-size="10.00">consumer key + PEM</text>
</g>
<!-- dev&#45;&gt;secrets -->
<g id="edge5" class="edge">
<title>dev&#45;&gt;secrets</title>
<path fill="none" stroke="black" d="M805.01,-406.73C860.47,-403.84 941.16,-395.69 1008,-373.19 1052.28,-358.28 1069,-334.29 1069,-287.56 1069,-287.56 1069,-287.56 1069,-109.62 1069,-78.06 1039.47,-59.58 1008.89,-48.91"/>
<polygon fill="black" stroke="black" points="1010.11,-45.63 999.52,-45.92 1007.97,-52.29 1010.11,-45.63"/>
</g>
<!-- lamrole -->
<g id="node9" class="node">
<title>lamrole</title>
<path fill="none" stroke="black" d="M990.62,-304.56C990.62,-304.56 945.38,-304.56 945.38,-304.56 939.38,-304.56 933.38,-298.56 933.38,-292.56 933.38,-292.56 933.38,-280.56 933.38,-280.56 933.38,-274.56 939.38,-268.56 945.38,-268.56 945.38,-268.56 990.62,-268.56 990.62,-268.56 996.62,-268.56 1002.62,-274.56 1002.62,-280.56 1002.62,-280.56 1002.62,-292.56 1002.62,-292.56 1002.62,-298.56 996.62,-304.56 990.62,-304.56"/>
<text xml:space="preserve" text-anchor="middle" x="968" y="-288.31" font-family="Helvetica,sans-Serif" font-size="10.00">Lambda role</text>
<text xml:space="preserve" text-anchor="middle" x="968" y="-277.06" font-family="Helvetica,sans-Serif" font-size="10.00">logs only</text>
</g>
<!-- dev&#45;&gt;lamrole -->
<g id="edge6" class="edge">
<title>dev&#45;&gt;lamrole</title>
<path fill="none" stroke="black" d="M804.84,-401.03C842.65,-394.25 889.36,-381.05 924,-355.44 937.95,-345.12 948.68,-328.96 956.05,-315"/>
<polygon fill="black" stroke="black" points="959.09,-316.75 960.36,-306.24 952.81,-313.66 959.09,-316.75"/>
</g>
<!-- lambda -->
<g id="node10" class="node">
<title>lambda</title>
<path fill="none" stroke="black" d="M971.12,-132.25C971.12,-132.25 862.88,-132.25 862.88,-132.25 856.88,-132.25 850.88,-126.25 850.88,-120.25 850.88,-120.25 850.88,-101 850.88,-101 850.88,-95 856.88,-89 862.88,-89 862.88,-89 971.12,-89 971.12,-89 977.12,-89 983.12,-95 983.12,-101 983.12,-101 983.12,-120.25 983.12,-120.25 983.12,-126.25 977.12,-132.25 971.12,-132.25"/>
<text xml:space="preserve" text-anchor="middle" x="917" y="-118.75" font-family="Helvetica,sans-Serif" font-size="10.00">Lambda (Python)</text>
<text xml:space="preserve" text-anchor="middle" x="917" y="-107.5" font-family="Helvetica,sans-Serif" font-size="10.00">event JSON → Salesforce</text>
<text xml:space="preserve" text-anchor="middle" x="917" y="-94.75" font-family="Helvetica,sans-Serif" font-size="10.00">no GetObject</text>
</g>
<!-- dev&#45;&gt;lambda -->
<g id="edge7" class="edge">
<title>dev&#45;&gt;lambda</title>
<path fill="none" stroke="black" d="M805.1,-404.81C877.34,-399.58 986.27,-386.62 1012,-355.44 1072.1,-282.62 1013.23,-226.09 957,-150.25 954.56,-146.95 951.82,-143.69 948.96,-140.53"/>
<polygon fill="black" stroke="black" points="951.72,-138.35 942.25,-133.58 946.68,-143.21 951.72,-138.35"/>
</g>
<!-- iamdc -->
<g id="node7" class="node">
<title>iamdc</title>
<path fill="none" stroke="black" d="M902.88,-307.44C902.88,-307.44 811.12,-307.44 811.12,-307.44 805.12,-307.44 799.12,-301.44 799.12,-295.44 799.12,-295.44 799.12,-277.69 799.12,-277.69 799.12,-271.69 805.12,-265.69 811.12,-265.69 811.12,-265.69 902.88,-265.69 902.88,-265.69 908.88,-265.69 914.88,-271.69 914.88,-277.69 914.88,-277.69 914.88,-295.44 914.88,-295.44 914.88,-301.44 908.88,-307.44 902.88,-307.44"/>
<text xml:space="preserve" text-anchor="middle" x="857" y="-293.94" font-family="Helvetica,sans-Serif" font-size="10.00">IAM user/role</text>
<text xml:space="preserve" text-anchor="middle" x="857" y="-282.69" font-family="Helvetica,sans-Serif" font-size="10.00">GetObject / ListBucket</text>
<text xml:space="preserve" text-anchor="middle" x="857" y="-271.44" font-family="Helvetica,sans-Serif" font-size="10.00">(see s3/README.md)</text>
</g>
<!-- s3conn&#45;&gt;iamdc -->
<g id="edge9" class="edge">
<title>s3conn&#45;&gt;iamdc</title>
<path fill="none" stroke="black" stroke-dasharray="5,2" d="M621.27,-305.03C639.6,-321.21 668.79,-343.55 699,-352.9 735.52,-364.19 749.4,-366.8 785,-352.9 804.14,-345.42 821.26,-330.21 834,-316.24"/>
<polygon fill="black" stroke="black" points="836.44,-318.77 840.35,-308.92 831.16,-314.18 836.44,-318.77"/>
<text xml:space="preserve" text-anchor="middle" x="739" y="-364.64" font-family="Helvetica,sans-Serif" font-size="9.00"> Data Cloud uses </text>
</g>
<!-- bucket&#45;&gt;lambda -->
<g id="edge11" class="edge">
<title>bucket&#45;&gt;lambda</title>
<path fill="none" stroke="black" d="M871.22,-177.51C878.66,-166.8 887.9,-153.5 896.14,-141.65"/>
<polygon fill="black" stroke="black" points="898.77,-143.99 901.6,-133.78 893.02,-140 898.77,-143.99"/>
<text xml:space="preserve" text-anchor="middle" x="920.67" y="-151.45" font-family="Helvetica,sans-Serif" font-size="9.00"> ObjectCreated </text>
</g>
<!-- iamdc&#45;&gt;bucket -->
<g id="edge10" class="edge">
<title>iamdc&#45;&gt;bucket</title>
<path fill="none" stroke="black" d="M857,-265.28C857,-255.22 857,-242.85 857,-231.59"/>
<polygon fill="black" stroke="black" points="860.5,-231.92 857,-221.92 853.5,-231.92 860.5,-231.92"/>
<text xml:space="preserve" text-anchor="middle" x="894.12" y="-239.14" font-family="Helvetica,sans-Serif" font-size="9.00"> read object bytes </text>
</g>
<!-- lambda&#45;&gt;cap -->
<g id="edge13" class="edge">
<title>lambda&#45;&gt;cap</title>
<path fill="none" stroke="black" d="M850.39,-125.1C738.64,-148.3 506.8,-199 315,-257.69 311.05,-258.9 307,-260.2 302.94,-261.56"/>
<polygon fill="black" stroke="black" points="301.93,-258.21 293.61,-264.78 304.21,-264.83 301.93,-258.21"/>
<text xml:space="preserve" text-anchor="middle" x="651.95" y="-195.29" font-family="Helvetica,sans-Serif" font-size="9.00"> JWT + CDP + beacon </text>
</g>
<!-- lambda&#45;&gt;secrets -->
<g id="edge12" class="edge">
<title>lambda&#45;&gt;secrets</title>
<path fill="none" stroke="black" d="M923.96,-88.84C926.66,-80.8 929.78,-71.48 932.66,-62.88"/>
<polygon fill="black" stroke="black" points="935.92,-64.18 935.77,-53.59 929.28,-61.96 935.92,-64.18"/>
</g>
</g>
</svg>
