<?xml version="1.0" encoding="UTF-8" standalone="no"?>
<!DOCTYPE svg PUBLIC "-//W3C//DTD SVG 1.1//EN"
 "http://www.w3.org/Graphics/SVG/1.1/DTD/svg11.dtd">
<!-- Generated by graphviz version 14.1.5 (20260411.2331)
 -->
<!-- Pages: 1 -->
<svg width="1096pt" height="435pt"
 viewBox="0.00 0.00 1096.00 435.00" xmlns="http://www.w3.org/2000/svg" xmlns:xlink="http://www.w3.org/1999/xlink">
<g id="graph0" class="graph" transform="scale(1 1) rotate(0) translate(4 431.19)">
<polygon fill="white" stroke="none" points="-4,4 -4,-431.19 1092,-431.19 1092,4 -4,4"/>
<g id="clust1" class="cluster">
<title>cluster_sf</title>
<polygon fill="none" stroke="black" points="8,-257.69 8,-355.44 712,-355.44 712,-257.69 8,-257.69"/>
<text xml:space="preserve" text-anchor="middle" x="360" y="-340.99" font-family="Helvetica,sans-Serif" font-size="11.00">Salesforce org</text>
</g>
<g id="clust2" class="cluster">
<title>cluster_aws</title>
<polygon fill="none" stroke="black" points="810,-8 810,-355.44 1030,-355.44 1030,-8 810,-8"/>
<text xml:space="preserve" text-anchor="middle" x="920" y="-340.99" font-family="Helvetica,sans-Serif" font-size="11.00">Customer AWS</text>
</g>
<!-- dev -->
<g id="node1" class="node">
<title>dev</title>
<polygon fill="none" stroke="black" points="844.75,-427.19 841.75,-431.19 820.75,-431.19 817.75,-427.19 671.25,-427.19 671.25,-391.19 844.75,-391.19 844.75,-427.19"/>
<text xml:space="preserve" text-anchor="middle" x="758" y="-410.94" font-family="Helvetica,sans-Serif" font-size="10.00">Developer</text>
<text xml:space="preserve" text-anchor="middle" x="758" y="-399.69" font-family="Helvetica,sans-Serif" font-size="10.00">lambda:zip + udlo&#45;notifier udlo setup</text>
</g>
<!-- cap -->
<g id="node2" class="node">
<title>cap</title>
<path fill="none" stroke="black" d="M313.5,-307.44C313.5,-307.44 204.5,-307.44 204.5,-307.44 198.5,-307.44 192.5,-301.44 192.5,-295.44 192.5,-295.44 192.5,-277.69 192.5,-277.69 192.5,-271.69 198.5,-265.69 204.5,-265.69 204.5,-265.69 313.5,-265.69 313.5,-265.69 319.5,-265.69 325.5,-271.69 325.5,-277.69 325.5,-277.69 325.5,-295.44 325.5,-295.44 325.5,-301.44 319.5,-307.44 313.5,-307.44"/>
<text xml:space="preserve" text-anchor="middle" x="259" y="-293.94" font-family="Helvetica,sans-Serif" font-size="10.00">Connected App (Core)</text>
<text xml:space="preserve" text-anchor="middle" x="259" y="-282.69" font-family="Helvetica,sans-Serif" font-size="10.00">UDLO_Notifier + JWT cert</text>
<text xml:space="preserve" text-anchor="middle" x="259" y="-271.44" font-family="Helvetica,sans-Serif" font-size="10.00">Named&#45;user JWT off</text>
</g>
<!-- dev&#45;&gt;cap -->
<g id="edge1" class="edge">
<title>dev&#45;&gt;cap</title>
<path fill="none" stroke="black" d="M671.13,-403.55C564.96,-396.82 392.25,-382.13 334,-355.44 314.25,-346.39 296.07,-330.23 282.56,-315.95"/>
<polygon fill="black" stroke="black" points="285.5,-313.99 276.19,-308.95 280.33,-318.7 285.5,-313.99"/>
</g>
<!-- oauth -->
<g id="node3" class="node">
<title>oauth</title>
<path fill="none" stroke="black" d="M508.62,-304.56C508.62,-304.56 355.38,-304.56 355.38,-304.56 349.38,-304.56 343.38,-298.56 343.38,-292.56 343.38,-292.56 343.38,-280.56 343.38,-280.56 343.38,-274.56 349.38,-268.56 355.38,-268.56 355.38,-268.56 508.62,-268.56 508.62,-268.56 514.62,-268.56 520.62,-274.56 520.62,-280.56 520.62,-280.56 520.62,-292.56 520.62,-292.56 520.62,-298.56 514.62,-304.56 508.62,-304.56"/>
<text xml:space="preserve" text-anchor="middle" x="432" y="-288.31" font-family="Helvetica,sans-Serif" font-size="10.00">Browser OAuth :1717</text>
<text xml:space="preserve" text-anchor="middle" x="432" y="-277.06" font-family="Helvetica,sans-Serif" font-size="10.00">api + refresh_token + cdp_ingest_api</text>
</g>
<!-- dev&#45;&gt;oauth -->
<g id="edge2" class="edge">
<title>dev&#45;&gt;oauth</title>
<path fill="none" stroke="black" d="M670.93,-396.24C627.07,-388.22 573.83,-375.37 529,-355.44 504.1,-344.36 478.97,-326.55 460.53,-311.95"/>
<polygon fill="black" stroke="black" points="462.94,-309.4 452.97,-305.83 458.54,-314.84 462.94,-309.4"/>
</g>
<!-- s3conn -->
<g id="node4" class="node">
<title>s3conn</title>
<path fill="none" stroke="black" d="M691.62,-304.56C691.62,-304.56 550.38,-304.56 550.38,-304.56 544.38,-304.56 538.38,-298.56 538.38,-292.56 538.38,-292.56 538.38,-280.56 538.38,-280.56 538.38,-274.56 544.38,-268.56 550.38,-268.56 550.38,-268.56 691.62,-268.56 691.62,-268.56 697.62,-268.56 703.62,-274.56 703.62,-280.56 703.62,-280.56 703.62,-292.56 703.62,-292.56 703.62,-298.56 697.62,-304.56 691.62,-304.56"/>
<text xml:space="preserve" text-anchor="middle" x="621" y="-289.06" font-family="Helvetica,sans-Serif" font-size="10.00">Data Cloud: S3 connection</text>
<text xml:space="preserve" text-anchor="middle" x="621" y="-277.81" font-family="Helvetica,sans-Serif" font-size="10.00">keys or AssumeRole → your AWS</text>
</g>
<!-- dev&#45;&gt;s3conn -->
<g id="edge3" class="edge">
<title>dev&#45;&gt;s3conn</title>
<path fill="none" stroke="black" d="M738.05,-390.76C731.64,-385.15 724.52,-378.91 718,-373.19 694.74,-352.74 668.39,-329.48 649.04,-312.37"/>
<polygon fill="black" stroke="black" points="651.61,-309.98 641.8,-305.97 646.98,-315.22 651.61,-309.98"/>
</g>
<!-- udlo -->
<g id="node5" class="node">
<title>udlo</title>
<path fill="none" stroke="black" d="M162.25,-304.56C162.25,-304.56 27.75,-304.56 27.75,-304.56 21.75,-304.56 15.75,-298.56 15.75,-292.56 15.75,-292.56 15.75,-280.56 15.75,-280.56 15.75,-274.56 21.75,-268.56 27.75,-268.56 27.75,-268.56 162.25,-268.56 162.25,-268.56 168.25,-268.56 174.25,-274.56 174.25,-280.56 174.25,-280.56 174.25,-292.56 174.25,-292.56 174.25,-298.56 168.25,-304.56 162.25,-304.56"/>
<text xml:space="preserve" text-anchor="middle" x="95" y="-288.31" font-family="Helvetica,sans-Serif" font-size="10.00">Data Cloud: UDLO / UDMO (UI)</text>
<text xml:space="preserve" text-anchor="middle" x="95" y="-277.06" font-family="Helvetica,sans-Serif" font-size="10.00">trailing slash e.g. afd360/</text>
</g>
<!-- dev&#45;&gt;udlo -->
<g id="edge4" class="edge">
<title>dev&#45;&gt;udlo</title>
<path fill="none" stroke="black" d="M671.01,-406.17C532.91,-401.98 270.28,-389.65 184,-355.44 159.7,-345.8 136.35,-327.54 119.68,-312.39"/>
<polygon fill="black" stroke="black" points="122.39,-310.13 112.7,-305.85 117.6,-315.24 122.39,-310.13"/>
</g>
<!-- bucket -->
<g id="node6" class="node">
<title>bucket</title>
<path fill="none" stroke="black" d="M906.88,-216.12C906.88,-218.23 893.04,-219.94 876,-219.94 858.96,-219.94 845.12,-218.23 845.12,-216.12 845.12,-216.12 845.12,-181.81 845.12,-181.81 845.12,-179.71 858.96,-178 876,-178 893.04,-178 906.88,-179.71 906.88,-181.81 906.88,-181.81 906.88,-216.12 906.88,-216.12"/>
<path fill="none" stroke="black" d="M906.88,-216.12C906.88,-214.02 893.04,-212.31 876,-212.31 858.96,-212.31 845.12,-214.02 845.12,-216.12"/>
<text xml:space="preserve" text-anchor="middle" x="876" y="-200.72" font-family="Helvetica,sans-Serif" font-size="10.00">S3 bucket</text>
<text xml:space="preserve" text-anchor="middle" x="876" y="-189.47" font-family="Helvetica,sans-Serif" font-size="10.00">(data files)</text>
</g>
<!-- dev&#45;&gt;bucket -->
<g id="edge8" class="edge">
<title>dev&#45;&gt;bucket</title>
<path fill="none" stroke="black" d="M785.85,-390.7C795.64,-382.41 802.53,-372.39 795,-363.44 781.64,-347.56 762.36,-371.32 749,-355.44 721.04,-322.19 725.48,-294.21 749,-257.69 767.52,-228.93 804.27,-214.33 833.49,-207.03"/>
<polygon fill="black" stroke="black" points="834.22,-210.45 843.19,-204.82 832.66,-203.62 834.22,-210.45"/>
<text xml:space="preserve" text-anchor="middle" x="779" y="-282.89" font-family="Helvetica,sans-Serif" font-size="9.00"> S3 event notif </text>
</g>
<!-- secrets -->
<g id="node8" class="node">
<title>secrets</title>
<path fill="none" stroke="black" d="M1004.62,-52C1004.62,-52 917.38,-52 917.38,-52 911.38,-52 905.38,-46 905.38,-40 905.38,-40 905.38,-28 905.38,-28 905.38,-22 911.38,-16 917.38,-16 917.38,-16 1004.62,-16 1004.62,-16 1010.62,-16 1016.62,-22 1016.62,-28 1016.62,-28 1016.62,-40 1016.62,-40 1016.62,-46 1010.62,-52 1004.62,-52"/>
<text xml:space="preserve" text-anchor="middle" x="961" y="-35.75" font-family="Helvetica,sans-Serif" font-size="10.00">Secrets Manager</text>
<text xml:space="preserve" text-anchor="middle" x="961" y="-24.5" font-family="Helvetica,sans-Serif" font-size="10.00">consumer key + PEM</text>
</g>
<!-- dev&#45;&gt;secrets -->
<g id="edge5" class="edge">
<title>dev&#45;&gt;secrets</title>
<path fill="none" stroke="black" d="M845.03,-405.45C898.67,-401.67 968.19,-392.98 1027,-373.19 1071.28,-358.28 1088,-334.29 1088,-287.56 1088,-287.56 1088,-287.56 1088,-109.62 1088,-78.06 1058.47,-59.58 1027.89,-48.91"/>
<polygon fill="black" stroke="black" points="1029.11,-45.63 1018.52,-45.92 1026.97,-52.29 1029.11,-45.63"/>
</g>
<!-- lamrole -->
<g id="node9" class="node">
<title>lamrole</title>
<path fill="none" stroke="black" d="M1009.62,-304.56C1009.62,-304.56 964.38,-304.56 964.38,-304.56 958.38,-304.56 952.38,-298.56 952.38,-292.56 952.38,-292.56 952.38,-280.56 952.38,-280.56 952.38,-274.56 958.38,-268.56 964.38,-268.56 964.38,-268.56 1009.62,-268.56 1009.62,-268.56 1015.62,-268.56 1021.62,-274.56 1021.62,-280.56 1021.62,-280.56 1021.62,-292.56 1021.62,-292.56 1021.62,-298.56 1015.62,-304.56 1009.62,-304.56"/>
<text xml:space="preserve" text-anchor="middle" x="987" y="-288.31" font-family="Helvetica,sans-Serif" font-size="10.00">Lambda role</text>
<text xml:space="preserve" text-anchor="middle" x="987" y="-277.06" font-family="Helvetica,sans-Serif" font-size="10.00">logs only</text>
</g>
<!-- dev&#45;&gt;lamrole -->
<g id="edge6" class="edge">
<title>dev&#45;&gt;lamrole</title>
<path fill="none" stroke="black" d="M844.79,-396.76C877.92,-389.15 914.53,-376.49 943,-355.44 956.95,-345.12 967.68,-328.96 975.05,-315"/>
<polygon fill="black" stroke="black" points="978.09,-316.75 979.36,-306.24 971.81,-313.66 978.09,-316.75"/>
</g>
<!-- lambda -->
<g id="node10" class="node">
<title>lambda</title>
<path fill="none" stroke="black" d="M990.12,-132.25C990.12,-132.25 881.88,-132.25 881.88,-132.25 875.88,-132.25 869.88,-126.25 869.88,-120.25 869.88,-120.25 869.88,-101 869.88,-101 869.88,-95 875.88,-89 881.88,-89 881.88,-89 990.12,-89 990.12,-89 996.12,-89 1002.12,-95 1002.12,-101 1002.12,-101 1002.12,-120.25 1002.12,-120.25 1002.12,-126.25 996.12,-132.25 990.12,-132.25"/>
<text xml:space="preserve" text-anchor="middle" x="936" y="-118.75" font-family="Helvetica,sans-Serif" font-size="10.00">Lambda (Python)</text>
<text xml:space="preserve" text-anchor="middle" x="936" y="-107.5" font-family="Helvetica,sans-Serif" font-size="10.00">event JSON → Salesforce</text>
<text xml:space="preserve" text-anchor="middle" x="936" y="-94.75" font-family="Helvetica,sans-Serif" font-size="10.00">no GetObject</text>
</g>
<!-- dev&#45;&gt;lambda -->
<g id="edge7" class="edge">
<title>dev&#45;&gt;lambda</title>
<path fill="none" stroke="black" d="M845,-403.15C915.78,-397.02 1007.65,-383.73 1031,-355.44 1091.1,-282.62 1032.23,-226.09 976,-150.25 973.56,-146.95 970.82,-143.69 967.96,-140.53"/>
<polygon fill="black" stroke="black" points="970.72,-138.35 961.25,-133.58 965.68,-143.21 970.72,-138.35"/>
</g>
<!-- iamdc -->
<g id="node7" class="node">
<title>iamdc</title>
<path fill="none" stroke="black" d="M921.88,-307.44C921.88,-307.44 830.12,-307.44 830.12,-307.44 824.12,-307.44 818.12,-301.44 818.12,-295.44 818.12,-295.44 818.12,-277.69 818.12,-277.69 818.12,-271.69 824.12,-265.69 830.12,-265.69 830.12,-265.69 921.88,-265.69 921.88,-265.69 927.88,-265.69 933.88,-271.69 933.88,-277.69 933.88,-277.69 933.88,-295.44 933.88,-295.44 933.88,-301.44 927.88,-307.44 921.88,-307.44"/>
<text xml:space="preserve" text-anchor="middle" x="876" y="-293.94" font-family="Helvetica,sans-Serif" font-size="10.00">IAM user/role</text>
<text xml:space="preserve" text-anchor="middle" x="876" y="-282.69" font-family="Helvetica,sans-Serif" font-size="10.00">GetObject / ListBucket</text>
<text xml:space="preserve" text-anchor="middle" x="876" y="-271.44" font-family="Helvetica,sans-Serif" font-size="10.00">(see s3/README.md)</text>
</g>
<!-- s3conn&#45;&gt;iamdc -->
<g id="edge9" class="edge">
<title>s3conn&#45;&gt;iamdc</title>
<path fill="none" stroke="black" stroke-dasharray="5,2" d="M640.27,-305.03C658.6,-321.21 687.79,-343.55 718,-352.9 754.52,-364.19 768.4,-366.8 804,-352.9 823.14,-345.42 840.26,-330.21 853,-316.24"/>
<polygon fill="black" stroke="black" points="855.44,-318.77 859.35,-308.92 850.16,-314.18 855.44,-318.77"/>
<text xml:space="preserve" text-anchor="middle" x="758" y="-364.64" font-family="Helvetica,sans-Serif" font-size="9.00"> Data Cloud uses </text>
</g>
<!-- bucket&#45;&gt;lambda -->
<g id="edge11" class="edge">
<title>bucket&#45;&gt;lambda</title>
<path fill="none" stroke="black" d="M890.22,-177.51C897.66,-166.8 906.9,-153.5 915.14,-141.65"/>
<polygon fill="black" stroke="black" points="917.77,-143.99 920.6,-133.78 912.02,-140 917.77,-143.99"/>
<text xml:space="preserve" text-anchor="middle" x="939.67" y="-151.45" font-family="Helvetica,sans-Serif" font-size="9.00"> ObjectCreated </text>
</g>
<!-- iamdc&#45;&gt;bucket -->
<g id="edge10" class="edge">
<title>iamdc&#45;&gt;bucket</title>
<path fill="none" stroke="black" d="M876,-265.28C876,-255.22 876,-242.85 876,-231.59"/>
<polygon fill="black" stroke="black" points="879.5,-231.92 876,-221.92 872.5,-231.92 879.5,-231.92"/>
<text xml:space="preserve" text-anchor="middle" x="913.12" y="-239.14" font-family="Helvetica,sans-Serif" font-size="9.00"> read object bytes </text>
</g>
<!-- lambda&#45;&gt;cap -->
<g id="edge13" class="edge">
<title>lambda&#45;&gt;cap</title>
<path fill="none" stroke="black" d="M869.39,-125.1C757.64,-148.3 525.8,-199 334,-257.69 330.05,-258.9 326,-260.2 321.94,-261.56"/>
<polygon fill="black" stroke="black" points="320.93,-258.21 312.61,-264.78 323.21,-264.83 320.93,-258.21"/>
<text xml:space="preserve" text-anchor="middle" x="670.95" y="-195.29" font-family="Helvetica,sans-Serif" font-size="9.00"> JWT + CDP + beacon </text>
</g>
<!-- lambda&#45;&gt;secrets -->
<g id="edge12" class="edge">
<title>lambda&#45;&gt;secrets</title>
<path fill="none" stroke="black" d="M942.96,-88.84C945.66,-80.8 948.78,-71.48 951.66,-62.88"/>
<polygon fill="black" stroke="black" points="954.92,-64.18 954.77,-53.59 948.28,-61.96 954.92,-64.18"/>
</g>
</g>
</svg>
